<svg width="32" height="32" viewBox="0 0 32 32" fill="none" xmlns="http://www.w3.org/2000/svg">
<path d="M29.3333 20C29.3333 25.16 25.16 29.3333 20 29.3333L21.4 27M2.66667 12C2.66667 6.84 6.84 2.66667 12 2.66667L10.6 5M18.2667 5.93334L23.5733 9L28.8267 5.94667M23.5733 14.4267V8.98667" stroke="white" stroke-width="2" stroke-linecap="round" stroke-linejoin="round"/>
<path d="M3.13333 20.6L8.42666 23.6667L13.6933 20.6133M8.42666 29.0933V23.6533M22.32 2.94667L19.12 4.72001C18.4 5.12001 17.8 6.13334 17.8 6.96V10.3467C17.8 11.1733 18.3867 12.1867 19.12 12.5867L22.32 14.36C23 14.7467 24.12 14.7467 24.8133 14.36L28.0133 12.5867C28.7333 12.1867 29.3333 11.1733 29.3333 10.3467V6.96C29.3333 6.13334 28.7467 5.12001 28.0133 4.72001L24.8133 2.94667C24.1333 2.57334 23.0133 2.57334 22.32 2.94667Z" stroke="white" stroke-width="2" stroke-linecap="round" stroke-linejoin="round"/>
<path d="M7.18667 17.6133L3.98667 19.3867C3.26667 19.7867 2.66667 20.8 2.66667 21.6267V25.0133C2.66667 25.84 3.25334 26.8533 3.98667 27.2533L7.18667 29.0267C7.86667 29.4133 8.98667 29.4133 9.68001 29.0267L12.88 27.2533C13.6 26.8533 14.2 25.84 14.2 25.0133V21.6267C14.2 20.8 13.6133 19.7867 12.88 19.3867L9.68001 17.6133C8.98667 17.24 7.86667 17.24 7.18667 17.6133V17.6133Z" stroke="white" stroke-width="2" stroke-linecap="round" stroke-linejoin="round"/>
</svg>
