<svg width="32" height="32" viewBox="0 0 32 32" fill="none" xmlns="http://www.w3.org/2000/svg">
<path d="M13.9867 2.97333L7.33333 5.46666C5.79999 6.04 4.54666 7.85333 4.54666 9.49333V19.4C4.54666 20.9733 5.58666 23.04 6.85333 23.9867L12.5867 28.2667C14.4667 29.68 17.56 29.68 19.44 28.2667L25.1733 23.9867C26.44 23.04 27.48 20.9733 27.48 19.4V9.49333C27.48 7.85333 26.2267 6.04 24.6933 5.46666L18.04 2.97333C16.9067 2.56 15.0933 2.56 13.9867 2.97333V2.97333Z" stroke="white" stroke-width="2" stroke-linecap="round" stroke-linejoin="round"/>
<path d="M16 14.56H15.8267C14.5733 14.52 13.5733 13.48 13.5733 12.2133C13.5733 10.92 14.6267 9.86667 15.92 9.86667C17.2133 9.86667 18.2667 10.92 18.2667 12.2133C18.2533 13.4933 17.2533 14.52 16 14.56ZM13.3467 18.2933C12.0667 19.1467 12.0667 20.5467 13.3467 21.4C14.8 22.3733 17.1867 22.3733 18.64 21.4C19.92 20.5467 19.92 19.1467 18.64 18.2933C17.2 17.32 14.8133 17.32 13.3467 18.2933Z" stroke="white" stroke-width="2" stroke-linecap="round" stroke-linejoin="round"/>
</svg>
